<?xml version="1.0" encoding="UTF-8" standalone="no"?>
<!DOCTYPE svg PUBLIC "-//W3C//DTD SVG 1.1//EN" "http://www.w3.org/Graphics/SVG/1.1/DTD/svg11.dtd">
<svg version="1.1" xmlns="http://www.w3.org/2000/svg" xmlns:xlink="http://www.w3.org/1999/xlink" preserveAspectRatio="xMidYMid meet" viewBox="0 0 640 640" width="640" height="640"><defs><path d="M438 1531C386.22 1531 344.25 1572.97 344.25 1624.75C344.25 1676.53 386.22 1718.5 438 1718.5C489.78 1718.5 531.75 1676.53 531.75 1624.75C531.75 1572.97 489.78 1531 438 1531Z" id="c1S7Wp7hhy"></path><path d="M413.77 1567.51L414.21 1567.53L414.66 1567.55L415.1 1567.58L415.53 1567.61L415.97 1567.65L416.4 1567.69L416.83 1567.74L417.26 1567.8L417.68 1567.86L418.11 1567.93L418.53 1568L418.95 1568.08L419.36 1568.17L419.78 1568.26L420.19 1568.35L420.6 1568.45L421 1568.56L421.41 1568.67L421.81 1568.79L422.21 1568.91L422.61 1569.04L423 1569.17L423.39 1569.31L423.78 1569.46L424.17 1569.61L424.56 1569.76L424.94 1569.92L425.32 1570.08L425.7 1570.25L426.08 1570.43L426.45 1570.61L426.82 1570.79L427.19 1570.98L427.56 1571.18L427.92 1571.37L428.28 1571.58L428.64 1571.79L429 1572L429.23 1571.96L429.47 1571.93L429.71 1571.89L429.94 1571.85L430.18 1571.82L430.41 1571.78L430.65 1571.75L430.89 1571.72L431.13 1571.68L431.37 1571.65L431.61 1571.62L431.85 1571.59L432.09 1571.56L432.33 1571.53L432.57 1571.5L432.81 1571.48L433.05 1571.45L433.29 1571.42L433.54 1571.4L433.78 1571.37L434.03 1571.35L434.27 1571.33L434.51 1571.31L434.76 1571.29L435.01 1571.27L435.25 1571.25L435.5 1571.24L435.75 1571.22L435.99 1571.2L436.24 1571.19L436.49 1571.18L436.74 1571.17L436.99 1571.16L437.24 1571.15L437.49 1571.14L437.74 1571.14L437.99 1571.13L438.24 1571.13L438.5 1571.13L438.75 1571.12L440.93 1571.17L443.09 1571.3L445.23 1571.52L447.34 1571.82L449.43 1572.2L451.48 1572.67L453.5 1573.21L455.49 1573.83L457.45 1574.52L459.37 1575.29L461.25 1576.13L463.1 1577.04L464.9 1578.02L466.66 1579.07L468.37 1580.18L470.04 1581.36L471.66 1582.59L473.23 1583.89L474.75 1585.24L476.22 1586.66L477.63 1588.12L478.98 1589.64L480.28 1591.21L481.52 1592.83L482.69 1594.5L483.8 1596.22L484.85 1597.98L485.83 1599.78L486.74 1601.62L487.58 1603.5L488.35 1605.42L489.05 1607.38L489.67 1609.37L490.21 1611.4L490.67 1613.45L491.06 1615.53L491.36 1617.64L491.57 1619.78L491.71 1621.94L491.75 1624.13L491.75 1624.36L491.75 1624.59L491.74 1624.83L491.74 1625.06L491.73 1625.3L491.73 1625.53L491.72 1625.76L491.71 1626L491.7 1626.23L491.68 1626.47L491.67 1626.7L491.66 1626.93L491.64 1627.17L491.62 1627.4L491.6 1627.63L491.59 1627.87L491.57 1628.1L491.54 1628.33L491.52 1628.56L491.5 1628.8L491.48 1629.03L491.45 1629.26L491.43 1629.49L491.4 1629.72L491.37 1629.95L491.34 1630.18L491.31 1630.41L491.28 1630.64L491.25 1630.87L491.22 1631.1L491.19 1631.33L491.16 1631.56L491.12 1631.79L491.09 1632.02L491.06 1632.24L491.02 1632.47L490.99 1632.7L490.95 1632.92L490.91 1633.15L490.88 1633.38L491.09 1633.73L491.3 1634.09L491.5 1634.46L491.7 1634.83L491.9 1635.2L492.09 1635.57L492.28 1635.95L492.46 1636.33L492.64 1636.71L492.81 1637.09L492.98 1637.48L493.15 1637.87L493.3 1638.26L493.46 1638.66L493.61 1639.05L493.75 1639.46L493.89 1639.86L494.03 1640.26L494.16 1640.67L494.28 1641.08L494.4 1641.49L494.51 1641.9L494.62 1642.32L494.73 1642.74L494.83 1643.15L494.92 1643.57L495.01 1644L495.09 1644.42L495.16 1644.85L495.23 1645.28L495.3 1645.7L495.36 1646.14L495.41 1646.57L495.46 1647L495.5 1647.43L495.54 1647.87L495.57 1648.31L495.59 1648.75L495.61 1649.18L495.63 1649.63L495.6 1650.9L495.52 1652.17L495.4 1653.42L495.22 1654.65L495 1655.87L494.72 1657.08L494.41 1658.26L494.05 1659.43L493.64 1660.57L493.19 1661.69L492.7 1662.79L492.17 1663.87L491.59 1664.93L490.98 1665.96L490.33 1666.96L489.65 1667.94L488.92 1668.88L488.16 1669.8L487.37 1670.69L486.55 1671.55L485.69 1672.37L484.8 1673.16L483.88 1673.92L482.94 1674.65L481.96 1675.33L480.96 1675.98L479.93 1676.59L478.87 1677.17L477.79 1677.7L476.69 1678.19L475.57 1678.64L474.43 1679.05L473.26 1679.41L472.08 1679.72L470.87 1680L469.65 1680.22L468.42 1680.4L467.17 1680.52L465.9 1680.6L464.63 1680.63L464.19 1680.62L463.75 1680.61L463.31 1680.6L462.87 1680.58L462.44 1680.55L462.01 1680.52L461.58 1680.48L461.15 1680.43L460.72 1680.38L460.3 1680.33L459.87 1680.26L459.45 1680.2L459.03 1680.12L458.62 1680.04L458.2 1679.96L457.79 1679.87L457.38 1679.77L456.97 1679.67L456.56 1679.57L456.16 1679.45L455.75 1679.34L455.35 1679.21L454.96 1679.08L454.56 1678.95L454.17 1678.81L453.78 1678.67L453.39 1678.52L453.01 1678.36L452.63 1678.21L452.25 1678.04L451.87 1677.87L451.5 1677.7L451.13 1677.52L450.76 1677.33L450.4 1677.14L450.04 1676.95L449.68 1676.75L449.33 1676.55L448.97 1676.34L448.63 1676.13L448.38 1676.17L448.14 1676.22L447.89 1676.26L447.65 1676.3L447.4 1676.35L447.15 1676.39L446.91 1676.43L446.66 1676.47L446.41 1676.51L446.17 1676.54L445.92 1676.58L445.67 1676.62L445.42 1676.65L445.17 1676.68L444.92 1676.72L444.67 1676.75L444.42 1676.78L444.17 1676.81L443.92 1676.83L443.67 1676.86L443.42 1676.88L443.17 1676.91L442.92 1676.93L442.67 1676.95L442.42 1676.97L442.16 1676.99L441.91 1677.01L441.66 1677.03L441.41 1677.04L441.15 1677.06L440.9 1677.07L440.65 1677.08L440.4 1677.09L440.14 1677.1L439.89 1677.11L439.64 1677.11L439.38 1677.12L439.13 1677.12L438.88 1677.12L438.63 1677.13L436.44 1677.08L434.28 1676.95L432.14 1676.73L430.03 1676.43L427.95 1676.05L425.9 1675.58L423.87 1675.04L421.88 1674.42L419.92 1673.73L418 1672.96L416.12 1672.12L414.28 1671.21L412.48 1670.23L410.72 1669.18L409 1668.07L407.33 1666.89L405.71 1665.66L404.14 1664.36L402.62 1663.01L401.16 1661.59L399.74 1660.13L398.39 1658.61L397.09 1657.04L395.86 1655.42L394.68 1653.75L393.57 1652.03L392.52 1650.27L391.54 1648.47L390.63 1646.63L389.79 1644.75L389.02 1642.83L388.33 1640.87L387.71 1638.88L387.17 1636.85L386.7 1634.8L386.32 1632.72L386.02 1630.61L385.8 1628.47L385.67 1626.31L385.63 1624.13L385.63 1623.89L385.63 1623.66L385.63 1623.42L385.64 1623.18L385.64 1622.95L385.65 1622.71L385.66 1622.47L385.67 1622.24L385.68 1622L385.69 1621.76L385.7 1621.53L385.72 1621.29L385.74 1621.05L385.75 1620.81L385.77 1620.58L385.79 1620.34L385.81 1620.1L385.83 1619.86L385.85 1619.63L385.88 1619.39L385.9 1619.15L385.92 1618.92L385.95 1618.68L385.98 1618.45L386 1618.21L386.03 1617.98L386.06 1617.74L386.09 1617.51L386.12 1617.27L386.15 1617.04L386.18 1616.81L386.22 1616.58L386.25 1616.35L386.28 1616.12L386.32 1615.89L386.35 1615.66L386.39 1615.43L386.43 1615.2L386.46 1614.98L386.5 1614.75L386.29 1614.39L386.08 1614.03L385.87 1613.67L385.67 1613.3L385.48 1612.93L385.28 1612.56L385.1 1612.19L384.92 1611.81L384.74 1611.43L384.56 1611.05L384.4 1610.67L384.23 1610.28L384.07 1609.89L383.92 1609.5L383.77 1609.1L383.63 1608.71L383.49 1608.31L383.36 1607.9L383.23 1607.5L383.11 1607.09L382.99 1606.68L382.88 1606.27L382.78 1605.86L382.68 1605.44L382.58 1605.03L382.49 1604.61L382.41 1604.18L382.33 1603.76L382.26 1603.33L382.19 1602.9L382.13 1602.47L382.08 1602.04L382.03 1601.6L381.99 1601.17L381.96 1600.73L381.93 1600.28L381.9 1599.84L381.89 1599.4L381.88 1598.95L381.88 1598.5L381.9 1597.22L381.98 1595.96L382.1 1594.71L382.28 1593.47L382.5 1592.25L382.78 1591.05L383.09 1589.86L383.46 1588.7L383.86 1587.56L384.31 1586.43L384.8 1585.33L385.33 1584.25L385.91 1583.2L386.52 1582.17L387.17 1581.17L387.86 1580.19L388.58 1579.24L389.34 1578.32L390.13 1577.44L390.95 1576.58L391.81 1575.75L392.7 1574.96L393.62 1574.2L394.57 1573.48L395.54 1572.79L396.54 1572.14L397.57 1571.53L398.63 1570.96L399.71 1570.43L400.81 1569.94L401.93 1569.49L403.08 1569.08L404.24 1568.72L405.42 1568.4L406.63 1568.13L407.85 1567.91L409.08 1567.73L410.33 1567.6L411.6 1567.53L412.88 1567.5L413.32 1567.5L413.77 1567.51ZM434.05 1586.35L432.82 1586.44L431.61 1586.57L430.43 1586.74L429.28 1586.94L428.16 1587.17L427.07 1587.45L426 1587.75L424.97 1588.09L423.96 1588.46L422.99 1588.87L422.05 1589.3L421.13 1589.77L420.25 1590.27L419.41 1590.79L418.59 1591.35L417.81 1591.94L417.07 1592.55L416.35 1593.19L415.67 1593.86L415.03 1594.56L414.42 1595.28L413.85 1596.02L413.32 1596.79L412.82 1597.59L412.36 1598.4L411.93 1599.24L411.55 1600.1L411.2 1600.99L410.89 1601.89L410.63 1602.82L410.4 1603.76L410.21 1604.72L410.06 1605.7L409.96 1606.7L409.9 1607.72L409.88 1608.75L409.95 1610.62L410.19 1612.36L410.56 1613.99L411.08 1615.51L411.72 1616.92L412.49 1618.22L413.36 1619.43L414.35 1620.55L415.43 1621.59L416.59 1622.54L417.84 1623.42L419.16 1624.23L420.55 1624.97L421.99 1625.65L423.48 1626.28L425.01 1626.86L426.57 1627.4L428.16 1627.9L429.76 1628.36L431.38 1628.8L432.99 1629.21L434.59 1629.61L436.18 1629.99L437.74 1630.37L439.27 1630.74L440.76 1631.12L442.2 1631.51L443.59 1631.91L444.91 1632.33L446.16 1632.78L447.32 1633.26L448.4 1633.77L449.39 1634.32L450.26 1634.91L451.03 1635.56L451.67 1636.27L452.19 1637.03L452.56 1637.86L452.8 1638.77L452.87 1639.75L452.87 1640.04L452.85 1640.34L452.81 1640.64L452.77 1640.95L452.71 1641.26L452.63 1641.57L452.54 1641.89L452.43 1642.2L452.31 1642.52L452.17 1642.83L452.02 1643.14L451.85 1643.46L451.67 1643.77L451.47 1644.08L451.25 1644.38L451.01 1644.68L450.76 1644.98L450.49 1645.27L450.2 1645.55L449.89 1645.83L449.56 1646.1L449.22 1646.36L448.86 1646.62L448.47 1646.86L448.07 1647.09L447.65 1647.32L447.21 1647.53L446.74 1647.73L446.26 1647.92L445.76 1648.1L445.23 1648.26L444.68 1648.41L444.11 1648.54L443.52 1648.66L442.91 1648.76L442.27 1648.85L441.62 1648.91L440.93 1648.96L440.23 1648.99L439.5 1649L438.46 1648.98L437.47 1648.9L436.53 1648.79L435.63 1648.63L434.78 1648.43L433.98 1648.2L433.21 1647.92L432.49 1647.62L431.8 1647.29L431.14 1646.93L430.52 1646.55L429.93 1646.14L429.36 1645.71L428.82 1645.27L428.3 1644.81L427.8 1644.34L427.33 1643.85L426.87 1643.37L426.42 1642.87L425.98 1642.38L425.56 1641.88L425.14 1641.38L424.73 1640.9L424.33 1640.41L423.92 1639.94L423.51 1639.48L423.1 1639.04L422.69 1638.61L422.27 1638.2L421.83 1637.82L421.39 1637.46L420.93 1637.13L420.46 1636.83L419.97 1636.55L419.45 1636.32L418.92 1636.12L418.35 1635.96L417.77 1635.85L417.15 1635.77L416.5 1635.75L416.23 1635.76L415.96 1635.77L415.7 1635.81L415.44 1635.85L415.19 1635.9L414.94 1635.97L414.7 1636.04L414.46 1636.13L414.22 1636.23L413.99 1636.33L413.77 1636.45L413.55 1636.57L413.34 1636.71L413.13 1636.85L412.93 1637L412.73 1637.16L412.54 1637.33L412.36 1637.5L412.19 1637.69L412.02 1637.88L411.85 1638.07L411.7 1638.27L411.55 1638.48L411.41 1638.69L411.27 1638.91L411.15 1639.14L411.03 1639.36L410.91 1639.6L410.81 1639.83L410.72 1640.07L410.63 1640.32L410.55 1640.57L410.48 1640.82L410.42 1641.07L410.37 1641.32L410.33 1641.58L410.29 1641.84L410.27 1642.1L410.25 1642.36L410.25 1642.63L410.28 1643.5L410.36 1644.35L410.5 1645.19L410.69 1646L410.93 1646.8L411.22 1647.58L411.56 1648.34L411.94 1649.07L412.37 1649.79L412.85 1650.49L413.37 1651.17L413.93 1651.83L414.52 1652.47L415.16 1653.09L415.83 1653.68L416.54 1654.26L417.28 1654.81L418.06 1655.34L418.87 1655.85L419.7 1656.34L420.57 1656.81L421.46 1657.26L422.38 1657.68L423.32 1658.08L424.28 1658.46L425.27 1658.81L426.27 1659.14L427.3 1659.45L428.34 1659.73L429.39 1659.99L430.46 1660.23L431.55 1660.44L432.64 1660.63L433.74 1660.79L434.86 1660.93L435.98 1661.05L437.1 1661.13L438.23 1661.2L439.37 1661.24L440.5 1661.25L441.77 1661.23L443.03 1661.18L444.26 1661.09L445.46 1660.97L446.65 1660.82L447.81 1660.63L448.94 1660.41L450.05 1660.16L451.14 1659.87L452.2 1659.55L453.23 1659.21L454.24 1658.83L455.22 1658.42L456.17 1657.98L457.09 1657.51L457.98 1657.01L458.84 1656.48L459.68 1655.92L460.48 1655.33L461.25 1654.72L461.99 1654.08L462.69 1653.41L463.37 1652.71L464.01 1651.99L464.61 1651.24L465.18 1650.47L465.72 1649.67L466.22 1648.84L466.69 1647.99L467.11 1647.12L467.5 1646.22L467.86 1645.3L468.17 1644.35L468.45 1643.39L468.68 1642.4L468.88 1641.38L469.03 1640.35L469.15 1639.3L469.22 1638.22L469.25 1637.12L469.17 1635.32L468.94 1633.62L468.56 1632.04L468.05 1630.56L467.41 1629.18L466.65 1627.89L465.78 1626.69L464.8 1625.58L463.73 1624.55L462.57 1623.6L461.33 1622.72L460.02 1621.91L458.64 1621.15L457.21 1620.46L455.72 1619.82L454.2 1619.23L452.65 1618.68L451.07 1618.17L449.48 1617.69L447.88 1617.25L446.27 1616.83L444.68 1616.43L443.1 1616.05L441.55 1615.68L440.03 1615.31L438.54 1614.95L437.11 1614.59L435.73 1614.21L434.42 1613.83L433.18 1613.43L432.02 1613.01L430.95 1612.56L429.97 1612.08L429.1 1611.57L428.34 1611.02L427.7 1610.42L427.19 1609.78L426.81 1609.08L426.58 1608.32L426.5 1607.5L426.51 1607.1L426.54 1606.72L426.58 1606.34L426.65 1605.97L426.73 1605.62L426.83 1605.27L426.95 1604.94L427.08 1604.62L427.23 1604.3L427.39 1604L427.57 1603.71L427.77 1603.43L427.98 1603.16L428.2 1602.9L428.44 1602.65L428.69 1602.41L428.95 1602.18L429.23 1601.96L429.51 1601.75L429.81 1601.55L430.12 1601.36L430.44 1601.18L430.78 1601.01L431.12 1600.85L431.47 1600.7L431.83 1600.56L432.2 1600.43L432.58 1600.31L432.96 1600.2L433.36 1600.1L433.76 1600.01L434.16 1599.93L434.58 1599.86L435 1599.8L435.42 1599.74L435.86 1599.7L436.29 1599.67L436.73 1599.64L437.18 1599.63L437.62 1599.62L438.6 1599.64L439.54 1599.7L440.43 1599.79L441.28 1599.92L442.09 1600.07L442.86 1600.26L443.59 1600.47L444.29 1600.7L444.96 1600.96L445.6 1601.25L446.2 1601.55L446.78 1601.87L447.34 1602.2L447.87 1602.55L448.38 1602.91L448.87 1603.28L449.34 1603.65L449.8 1604.04L450.24 1604.42L450.67 1604.81L451.09 1605.2L451.5 1605.59L451.91 1605.97L452.3 1606.35L452.7 1606.72L453.09 1607.08L453.49 1607.42L453.89 1607.76L454.29 1608.08L454.69 1608.38L455.11 1608.66L455.53 1608.92L455.97 1609.16L456.42 1609.37L456.88 1609.55L457.37 1609.71L457.87 1609.83L458.39 1609.92L458.93 1609.98L459.5 1610L459.89 1609.99L460.27 1609.97L460.64 1609.94L461.01 1609.9L461.37 1609.84L461.71 1609.77L462.05 1609.69L462.38 1609.6L462.7 1609.5L463.02 1609.38L463.32 1609.26L463.61 1609.12L463.89 1608.97L464.17 1608.82L464.43 1608.65L464.68 1608.47L464.93 1608.29L465.16 1608.09L465.38 1607.89L465.59 1607.67L465.79 1607.45L465.98 1607.22L466.16 1606.98L466.33 1606.73L466.49 1606.48L466.63 1606.22L466.77 1605.95L466.89 1605.67L467 1605.39L467.09 1605.1L467.18 1604.8L467.25 1604.5L467.31 1604.19L467.36 1603.87L467.4 1603.55L467.42 1603.23L467.43 1602.9L467.42 1602.56L467.41 1602.22L467.38 1601.87L467.28 1601.35L467.16 1600.82L467 1600.29L466.81 1599.77L466.58 1599.24L466.32 1598.71L466.03 1598.19L465.71 1597.67L465.35 1597.15L464.97 1596.64L464.55 1596.13L464.1 1595.63L463.61 1595.13L463.1 1594.64L462.55 1594.16L461.97 1593.68L461.37 1593.22L460.73 1592.76L460.06 1592.31L459.36 1591.87L458.63 1591.45L457.87 1591.04L457.08 1590.63L456.26 1590.25L455.41 1589.87L454.53 1589.51L453.62 1589.17L452.69 1588.84L451.72 1588.53L450.73 1588.23L449.71 1587.96L448.66 1587.7L447.58 1587.46L446.47 1587.24L445.33 1587.04L444.17 1586.86L442.98 1586.71L441.77 1586.57L440.52 1586.46L439.25 1586.37L437.91 1586.31L436.6 1586.29L435.31 1586.3L434.05 1586.35Z" id="a8TwNQbr1L"></path><path d="M236.76 124.79L238.25 124.84L239.74 124.92L241.23 125.01L242.71 125.12L244.18 125.26L245.65 125.41L247.11 125.59L248.56 125.78L250.01 125.99L251.45 126.23L252.89 126.48L254.32 126.75L255.74 127.04L257.15 127.35L258.56 127.68L259.96 128.03L261.35 128.4L262.73 128.78L264.11 129.18L265.48 129.61L266.84 130.04L268.19 130.5L269.54 130.98L270.87 131.47L272.2 131.98L273.52 132.5L274.83 133.05L276.13 133.61L277.42 134.19L278.71 134.78L279.98 135.39L281.24 136.02L282.5 136.67L283.74 137.33L284.98 138L286.2 138.69L287.42 139.4L288.63 140.12L289.44 139.98L290.26 139.83L291.08 139.69L291.9 139.55L292.71 139.42L293.54 139.28L294.36 139.16L295.18 139.03L296 138.91L296.83 138.79L297.65 138.68L298.48 138.57L299.31 138.46L300.14 138.36L300.96 138.26L301.79 138.16L302.63 138.07L303.46 137.98L304.29 137.89L305.12 137.81L305.96 137.73L306.8 137.66L307.63 137.59L308.47 137.52L309.31 137.46L310.15 137.4L310.99 137.35L311.83 137.3L312.67 137.25L313.52 137.21L314.36 137.17L315.21 137.13L316.05 137.1L316.9 137.08L317.75 137.05L318.6 137.03L319.44 137.02L320.3 137.01L321.15 137L322 137L329.46 137.15L336.85 137.6L344.15 138.34L351.37 139.37L358.49 140.68L365.51 142.26L372.42 144.11L379.22 146.22L385.91 148.6L392.47 151.22L398.9 154.09L405.2 157.2L411.35 160.54L417.36 164.11L423.21 167.9L428.91 171.91L434.44 176.13L439.81 180.56L444.99 185.18L450 190L454.82 195.01L459.44 200.19L463.87 205.56L468.09 211.09L472.1 216.79L475.89 222.64L479.46 228.65L482.8 234.8L485.91 241.1L488.78 247.53L491.4 254.09L493.78 260.78L495.89 267.58L497.74 274.49L499.32 281.51L500.63 288.63L501.66 295.85L502.4 303.15L502.85 310.54L503 318L503 318.81L502.99 319.63L502.98 320.44L502.97 321.25L502.95 322.06L502.93 322.87L502.91 323.68L502.88 324.48L502.85 325.29L502.82 326.09L502.78 326.89L502.74 327.69L502.69 328.49L502.64 329.29L502.59 330.08L502.54 330.88L502.48 331.67L502.42 332.46L502.35 333.26L502.28 334.05L502.21 334.84L502.13 335.62L502.06 336.41L501.97 337.2L501.89 337.98L501.8 338.77L501.71 339.55L501.62 340.33L501.52 341.11L501.42 341.89L501.31 342.67L501.21 343.44L501.1 344.22L500.99 345L500.87 345.77L500.75 346.54L500.63 347.31L500.51 348.09L500.38 348.86L500.25 349.63L501 350.85L501.74 352.08L502.45 353.33L503.15 354.58L503.84 355.84L504.51 357.12L505.16 358.4L505.79 359.69L506.4 360.99L507 362.3L507.58 363.62L508.14 364.95L508.69 366.29L509.21 367.63L509.72 368.99L510.21 370.35L510.68 371.72L511.14 373.1L511.57 374.48L511.98 375.88L512.38 377.28L512.76 378.68L513.11 380.1L513.45 381.52L513.77 382.95L514.07 384.39L514.35 385.83L514.61 387.28L514.85 388.73L515.07 390.2L515.27 391.66L515.45 393.14L515.6 394.62L515.74 396.1L515.86 397.59L515.95 399.09L516.03 400.59L516.08 402.1L516.11 403.61L516.13 405.12L516.04 409.48L515.78 413.79L515.34 418.06L514.74 422.27L513.98 426.42L513.06 430.52L511.98 434.56L510.74 438.53L509.36 442.43L507.83 446.26L506.16 450.01L504.34 453.68L502.39 457.28L500.31 460.78L498.1 464.2L495.76 467.52L493.29 470.75L490.71 473.88L488.01 476.91L485.2 479.83L482.28 482.64L479.26 485.34L476.13 487.92L472.9 490.38L469.57 492.72L466.16 494.93L462.65 497.02L459.06 498.97L455.38 500.78L451.63 502.46L447.8 503.99L443.9 505.37L439.93 506.6L435.9 507.68L431.8 508.61L427.64 509.37L423.43 509.97L419.17 510.4L414.86 510.66L410.5 510.75L409 510.74L407.51 510.71L406.02 510.66L404.54 510.59L403.06 510.49L401.59 510.38L400.12 510.25L398.66 510.1L397.21 509.93L395.76 509.74L394.32 509.53L392.88 509.3L391.45 509.05L390.03 508.79L388.61 508.5L387.2 508.2L385.8 507.88L384.41 507.53L383.02 507.17L381.64 506.8L380.27 506.4L378.9 505.99L377.55 505.56L376.2 505.11L374.86 504.64L373.53 504.16L372.21 503.66L370.89 503.14L369.59 502.6L368.29 502.05L367.01 501.48L365.73 500.89L364.46 500.29L363.21 499.67L361.96 499.04L360.72 498.39L359.49 497.72L358.28 497.04L357.07 496.34L355.88 495.62L355.06 495.78L354.24 495.94L353.42 496.09L352.6 496.23L351.77 496.37L350.95 496.51L350.12 496.65L349.29 496.78L348.46 496.91L347.63 497.03L346.79 497.15L345.96 497.26L345.12 497.38L344.28 497.48L343.44 497.59L342.6 497.69L341.76 497.78L340.91 497.87L340.07 497.96L339.22 498.05L338.37 498.13L337.52 498.2L336.67 498.27L335.81 498.34L334.96 498.41L334.1 498.47L333.25 498.52L332.39 498.57L331.53 498.62L330.67 498.67L329.81 498.71L328.94 498.74L328.08 498.77L327.21 498.8L326.35 498.82L325.48 498.84L324.61 498.86L323.74 498.87L322.87 498.87L322 498.87L314.54 498.72L307.15 498.28L299.85 497.53L292.63 496.51L285.51 495.2L278.49 493.62L271.58 491.77L264.78 489.65L258.09 487.28L251.53 484.66L245.1 481.79L238.8 478.68L232.65 475.34L226.64 471.77L220.79 467.97L215.09 463.96L209.56 459.74L204.19 455.32L199.01 450.69L194 445.87L189.18 440.87L184.56 435.68L180.13 430.32L175.91 424.79L171.9 419.09L168.11 413.23L164.54 407.23L161.2 401.07L158.09 394.77L155.22 388.34L152.6 381.78L150.22 375.1L148.11 368.3L146.26 361.38L144.68 354.36L143.37 347.24L142.34 340.03L141.6 332.72L141.15 325.34L141 317.87L141 317.05L141.01 316.23L141.02 315.41L141.03 314.59L141.05 313.77L141.07 312.95L141.09 312.13L141.12 311.32L141.15 310.5L141.19 309.69L141.22 308.88L141.27 308.07L141.31 307.26L141.36 306.45L141.42 305.65L141.47 304.84L141.53 304.03L141.6 303.23L141.66 302.43L141.73 301.62L141.81 300.82L141.89 300.02L141.97 299.22L142.05 298.43L142.14 297.63L142.23 296.83L142.33 296.04L142.43 295.24L142.53 294.45L142.63 293.65L142.74 292.86L142.86 292.07L142.97 291.28L143.09 290.48L143.21 289.69L143.34 288.9L143.47 288.11L143.6 287.33L143.74 286.54L143.87 285.75L143.13 284.54L142.41 283.33L141.7 282.1L141 280.86L140.33 279.61L139.67 278.35L139.02 277.08L138.4 275.8L137.79 274.51L137.2 273.21L136.62 271.9L136.06 270.58L135.52 269.26L135 267.92L134.5 266.57L134.01 265.21L133.54 263.85L133.09 262.48L132.66 261.09L132.25 259.7L131.86 258.3L131.48 256.9L131.13 255.48L130.79 254.06L130.47 252.63L130.17 251.19L129.9 249.75L129.64 248.3L129.4 246.84L129.18 245.37L128.98 243.9L128.8 242.42L128.65 240.94L128.51 239.45L128.39 237.95L128.3 236.44L128.22 234.94L128.17 233.42L128.14 231.9L128.12 230.37L128.21 226.02L128.47 221.71L128.91 217.44L129.51 213.23L130.27 209.08L131.19 204.98L132.27 200.94L133.51 196.97L134.89 193.07L136.42 189.24L138.09 185.49L139.91 181.82L141.86 178.22L143.94 174.72L146.15 171.3L148.49 167.98L150.96 164.75L153.54 161.62L156.24 158.59L159.05 155.67L161.97 152.86L164.99 150.16L168.12 147.58L171.35 145.12L174.68 142.78L178.09 140.57L181.6 138.48L185.19 136.53L188.87 134.72L192.62 133.04L196.45 131.51L200.35 130.13L204.32 128.9L208.35 127.82L212.45 126.89L216.61 126.13L220.82 125.53L225.08 125.1L229.39 124.84L233.75 124.75L235.26 124.76L236.76 124.79ZM306.22 189.48L302.02 189.8L297.92 190.25L293.91 190.82L289.99 191.52L286.17 192.33L282.44 193.26L278.82 194.31L275.29 195.47L271.87 196.75L268.55 198.13L265.33 199.62L262.22 201.22L259.23 202.92L256.33 204.72L253.56 206.62L250.89 208.63L248.34 210.72L245.9 212.91L243.59 215.19L241.39 217.56L239.31 220.02L237.36 222.56L235.53 225.19L233.82 227.9L232.25 230.69L230.8 233.55L229.48 236.49L228.3 239.5L227.24 242.59L226.33 245.74L225.55 248.96L224.9 252.25L224.4 255.6L224.04 259.01L223.82 262.47L223.75 266L224.02 272.36L224.81 278.3L226.1 283.83L227.86 288.99L230.05 293.78L232.66 298.23L235.65 302.35L239 306.16L242.68 309.67L246.66 312.91L250.92 315.9L255.42 318.65L260.15 321.17L265.06 323.49L270.14 325.63L275.36 327.61L280.69 329.43L286.1 331.12L291.57 332.7L297.06 334.19L302.56 335.6L308.02 336.95L313.43 338.25L318.76 339.54L323.98 340.82L329.06 342.11L333.98 343.44L338.7 344.81L343.21 346.25L347.46 347.77L351.45 349.4L355.13 351.15L358.48 353.03L361.47 355.08L364.07 357.29L366.27 359.7L368.02 362.32L369.31 365.17L370.1 368.27L370.37 371.63L370.35 372.6L370.29 373.6L370.17 374.61L370.02 375.63L369.81 376.67L369.55 377.72L369.25 378.77L368.9 379.83L368.49 380.9L368.03 381.96L367.52 383.02L366.95 384.08L366.33 385.13L365.65 386.18L364.91 387.21L364.11 388.23L363.26 389.24L362.34 390.23L361.37 391.19L360.33 392.14L359.23 393.06L358.06 393.96L356.82 394.83L355.53 395.66L354.16 396.47L352.72 397.24L351.22 397.97L349.64 398.66L347.99 399.3L346.28 399.91L344.48 400.47L342.62 400.97L340.67 401.43L338.65 401.83L336.56 402.18L334.38 402.47L332.13 402.7L329.79 402.86L327.37 402.97L324.88 403L321.35 402.92L317.99 402.67L314.8 402.28L311.78 401.74L308.9 401.06L306.17 400.26L303.58 399.34L301.11 398.31L298.77 397.17L296.54 395.95L294.43 394.64L292.41 393.25L290.48 391.8L288.64 390.29L286.88 388.72L285.19 387.12L283.56 385.48L281.99 383.81L280.47 382.13L278.98 380.44L277.54 378.75L276.11 377.06L274.71 375.4L273.31 373.76L271.92 372.15L270.53 370.59L269.13 369.08L267.71 367.62L266.26 366.24L264.78 364.93L263.25 363.7L261.68 362.57L260.06 361.54L258.37 360.62L256.61 359.81L254.77 359.14L252.85 358.6L250.84 358.2L248.72 357.96L246.5 357.88L245.6 357.9L244.71 357.96L243.83 358.06L242.96 358.2L242.11 358.38L241.27 358.59L240.45 358.84L239.65 359.13L238.86 359.45L238.08 359.8L237.33 360.19L236.59 360.61L235.87 361.05L235.16 361.53L234.48 362.03L233.82 362.57L233.18 363.13L232.55 363.71L231.95 364.32L231.38 364.95L230.82 365.61L230.29 366.29L229.78 366.98L229.29 367.7L228.83 368.44L228.4 369.2L227.99 369.97L227.6 370.76L227.25 371.56L226.92 372.38L226.62 373.21L226.34 374.05L226.1 374.91L225.89 375.77L225.7 376.64L225.55 377.53L225.43 378.42L225.33 379.32L225.28 380.22L225.25 381.13L225.33 384.11L225.6 387.04L226.05 389.89L226.69 392.69L227.5 395.42L228.48 398.08L229.63 400.67L230.94 403.2L232.4 405.66L234.02 408.05L235.78 410.37L237.68 412.62L239.72 414.8L241.89 416.91L244.19 418.94L246.61 420.91L249.15 422.8L251.79 424.62L254.55 426.36L257.41 428.03L260.36 429.62L263.41 431.14L266.54 432.58L269.76 433.95L273.05 435.23L276.41 436.44L279.85 437.57L283.34 438.61L286.89 439.58L290.5 440.47L294.15 441.27L297.85 442L301.58 442.64L305.35 443.19L309.15 443.67L312.97 444.06L316.8 444.36L320.65 444.58L324.51 444.71L328.38 444.75L332.74 444.69L337.02 444.51L341.23 444.21L345.36 443.8L349.41 443.27L353.38 442.63L357.27 441.88L361.07 441.02L364.78 440.04L368.4 438.96L371.93 437.78L375.37 436.48L378.71 435.09L381.95 433.59L385.1 431.99L388.15 430.3L391.09 428.5L393.93 426.61L396.66 424.63L399.28 422.55L401.79 420.38L404.2 418.11L406.48 415.76L408.66 413.32L410.71 410.8L412.64 408.19L414.46 405.49L416.15 402.71L417.71 399.86L419.15 396.92L420.46 393.91L421.64 390.81L422.68 387.65L423.59 384.41L424.37 381.1L425 377.71L425.5 374.26L425.85 370.74L426.06 367.15L426.12 363.5L425.86 357.32L425.07 351.53L423.79 346.12L422.04 341.05L419.86 336.33L417.27 331.93L414.3 327.84L410.97 324.04L407.31 320.51L403.35 317.25L399.12 314.23L394.64 311.45L389.95 308.87L385.06 306.49L380.01 304.29L374.82 302.26L369.52 300.38L364.14 298.64L358.71 297.01L353.25 295.48L347.79 294.05L342.36 292.68L336.98 291.37L331.68 290.1L326.49 288.85L321.44 287.61L316.55 286.36L311.86 285.09L307.38 283.78L303.15 282.41L299.19 280.98L295.53 279.45L292.2 277.83L289.23 276.08L286.64 274.2L284.46 272.18L282.71 269.98L281.43 267.61L280.64 265.04L280.37 262.25L280.41 260.88L280.5 259.55L280.66 258.26L280.88 257L281.16 255.78L281.5 254.59L281.89 253.45L282.35 252.34L282.85 251.26L283.41 250.23L284.02 249.23L284.68 248.26L285.39 247.33L286.15 246.44L286.95 245.58L287.8 244.75L288.7 243.97L289.63 243.21L290.61 242.5L291.62 241.81L292.68 241.16L293.77 240.55L294.9 239.97L296.06 239.43L297.26 238.92L298.48 238.44L299.74 237.99L301.03 237.59L302.34 237.21L303.68 236.87L305.05 236.56L306.44 236.28L307.85 236.04L309.28 235.83L310.74 235.65L312.21 235.51L313.7 235.39L315.2 235.31L316.72 235.27L318.25 235.25L321.58 235.31L324.76 235.51L327.79 235.82L330.68 236.24L333.44 236.76L336.06 237.39L338.57 238.11L340.95 238.92L343.23 239.8L345.4 240.76L347.47 241.78L349.45 242.86L351.34 244L353.16 245.18L354.9 246.4L356.58 247.66L358.19 248.94L359.75 250.24L361.26 251.55L362.73 252.88L364.17 254.2L365.57 255.51L366.95 256.81L368.32 258.09L369.67 259.35L371.02 260.57L372.37 261.75L373.72 262.89L375.1 263.97L376.49 264.99L377.9 265.95L379.35 266.83L380.84 267.64L382.38 268.36L383.96 268.99L385.6 269.51L387.31 269.93L389.09 270.24L390.94 270.44L392.87 270.5L394.22 270.48L395.54 270.41L396.82 270.3L398.08 270.14L399.3 269.94L400.49 269.7L401.66 269.42L402.79 269.1L403.88 268.74L404.95 268.34L405.98 267.91L406.98 267.43L407.95 266.92L408.88 266.38L409.77 265.8L410.63 265.19L411.46 264.54L412.25 263.87L413 263.16L413.72 262.42L414.4 261.66L415.04 260.86L415.65 260.04L416.21 259.19L416.74 258.31L417.23 257.41L417.68 256.49L418.09 255.54L418.46 254.57L418.79 253.57L419.07 252.56L419.32 251.52L419.52 250.47L419.69 249.4L419.81 248.31L419.88 247.2L419.91 246.08L419.9 244.94L419.85 243.79L419.75 242.63L419.45 240.82L419.03 239.01L418.5 237.21L417.85 235.4L417.09 233.59L416.22 231.79L415.23 229.99L414.13 228.21L412.93 226.43L411.61 224.67L410.18 222.93L408.64 221.2L406.99 219.5L405.24 217.82L403.38 216.16L401.41 214.53L399.34 212.93L397.16 211.36L394.87 209.83L392.48 208.33L389.99 206.87L387.4 205.45L384.7 204.08L381.91 202.75L379.01 201.46L376.01 200.23L372.91 199.05L369.71 197.93L366.42 196.86L363.03 195.85L359.54 194.9L355.95 194.02L352.27 193.2L348.49 192.45L344.62 191.77L340.66 191.16L336.6 190.63L332.45 190.17L328.21 189.79L323.87 189.5L319.33 189.3L314.87 189.23L310.5 189.29L306.22 189.48Z" id="conk4Viiz"></path></defs><g><g><g><use xlink:href="#c1S7Wp7hhy" opacity="1" fill="#00aaeb" fill-opacity="1"></use><g><use xlink:href="#c1S7Wp7hhy" opacity="1" fill-opacity="0" stroke="#000000" stroke-width="1" stroke-opacity="0"></use></g></g><g><use xlink:href="#a8TwNQbr1L" opacity="1" fill="#ffffff" fill-opacity="1"></use><g><use xlink:href="#a8TwNQbr1L" opacity="1" fill-opacity="0" stroke="#000000" stroke-width="1" stroke-opacity="0"></use></g></g><g><use xlink:href="#conk4Viiz" opacity="1" fill="#ffffff" fill-opacity="1"></use><g><use xlink:href="#conk4Viiz" opacity="1" fill-opacity="0" stroke="#000000" stroke-width="1" stroke-opacity="0"></use></g></g></g></g></svg>