<?xml version="1.0" encoding="UTF-8" standalone="no"?>
<!DOCTYPE svg PUBLIC "-//W3C//DTD SVG 1.1//EN" "http://www.w3.org/Graphics/SVG/1.1/DTD/svg11.dtd">
<svg version="1.1" xmlns="http://www.w3.org/2000/svg" xmlns:xlink="http://www.w3.org/1999/xlink" preserveAspectRatio="xMidYMid meet" viewBox="0 0 512 512" width="512" height="512"><defs><path d="M375.11 148.23L375.74 148.32L376.35 148.44L376.95 148.6L377.53 148.78L378.1 148.99L378.64 149.24L379.16 149.51L379.67 149.81L380.15 150.15L380.61 150.51L381.05 150.89L381.47 151.31L381.86 151.75L382.23 152.22L382.57 152.72L382.89 153.24L383.19 153.79L383.45 154.37L383.7 154.97L383.91 155.59L384.09 156.24L384.25 156.91L384.37 157.61L384.47 158.33L384.54 159.07L384.57 159.83L384.57 160.62L384.54 161.42L384.48 162.25L384.42 162.79L384.37 163.33L384.3 163.86L384.24 164.4L384.17 164.93L384.09 165.47L384.02 166L383.94 166.53L383.85 167.07L383.77 167.6L383.68 168.13L383.58 168.67L383.49 169.2L383.39 169.73L383.29 170.26L383.19 170.79L383.09 171.33L382.98 171.86L382.87 172.39L382.76 172.92L382.65 173.45L382.54 173.98L382.42 174.51L382.31 175.04L382.19 175.57L382.08 176.1L381.96 176.63L381.84 177.16L381.72 177.69L381.6 178.22L381.49 178.75L381.37 179.28L381.25 179.81L381.13 180.34L381.01 180.87L380.9 181.4L380.78 181.93L380.67 182.46L380.55 182.99L380.44 183.52L379.55 187.7L378.67 191.89L377.78 196.07L376.89 200.26L376.01 204.44L375.12 208.62L374.23 212.81L373.35 216.99L372.46 221.18L371.57 225.36L370.69 229.55L369.8 233.73L368.91 237.92L368.03 242.1L367.14 246.28L366.25 250.47L365.36 254.65L364.48 258.84L363.59 263.02L362.7 267.21L361.81 271.39L360.93 275.57L360.04 279.76L359.15 283.94L358.26 288.13L357.37 292.31L356.48 296.5L355.6 300.68L354.71 304.86L353.82 309.05L352.93 313.23L352.04 317.42L351.15 321.6L350.26 325.78L349.37 329.97L348.48 334.15L347.59 338.33L346.7 342.52L345.81 346.7L344.92 350.88L344.69 351.86L344.45 352.8L344.18 353.7L343.88 354.56L343.57 355.39L343.23 356.18L342.87 356.93L342.49 357.64L342.08 358.32L341.66 358.96L341.22 359.56L340.76 360.12L340.28 360.64L339.78 361.12L339.27 361.57L338.73 361.97L338.18 362.34L337.62 362.66L337.03 362.95L336.44 363.2L335.82 363.41L335.19 363.57L334.55 363.7L333.89 363.79L333.23 363.83L332.54 363.84L331.85 363.8L331.14 363.73L330.42 363.61L329.69 363.45L328.95 363.25L328.2 363.01L327.44 362.72L326.67 362.4L325.9 362.03L325.11 361.62L324.32 361.16L323.52 360.67L322.71 360.13L321.89 359.55L320.53 358.54L319.16 357.53L317.79 356.52L316.42 355.51L315.05 354.5L313.68 353.49L312.31 352.48L310.94 351.47L309.57 350.46L308.21 349.45L306.84 348.44L305.47 347.43L304.1 346.42L302.73 345.41L301.36 344.4L299.99 343.39L298.63 342.38L297.26 341.36L295.89 340.35L294.52 339.34L293.15 338.33L291.78 337.32L290.42 336.31L289.05 335.3L287.68 334.29L286.31 333.27L284.94 332.26L283.57 331.25L282.21 330.24L280.84 329.23L279.47 328.22L278.1 327.21L276.73 326.2L275.37 325.18L274 324.17L272.63 323.16L271.26 322.15L269.89 321.14L268.52 320.13L267.16 319.12L267.09 319.07L267.03 319.02L266.96 318.98L266.89 318.93L266.83 318.88L266.76 318.84L266.7 318.79L266.63 318.74L266.56 318.69L266.5 318.65L266.43 318.6L266.36 318.55L266.29 318.51L266.23 318.46L266.16 318.41L266.09 318.36L266.02 318.32L265.95 318.27L265.89 318.22L265.82 318.17L265.75 318.13L265.68 318.08L265.61 318.03L265.4 317.88L265.33 317.84L265.26 317.79L265.19 317.74L265.12 317.69L265.04 317.64L264.97 317.59L264.9 317.54L264.83 317.49L264.75 317.44L264.68 317.39L264.61 317.33L264.53 317.28L264.46 317.23L264.39 317.18L263.65 317.9L262.91 318.62L262.17 319.34L261.43 320.05L260.69 320.77L259.95 321.49L259.22 322.21L258.48 322.92L257.74 323.64L257.01 324.35L256.27 325.07L255.54 325.78L254.8 326.5L254.07 327.21L253.33 327.93L252.6 328.64L251.86 329.35L251.13 330.07L250.39 330.78L249.66 331.49L248.93 332.2L248.2 332.92L247.46 333.63L246.73 334.34L246 335.05L245.27 335.77L244.54 336.48L243.81 337.19L243.08 337.9L242.35 338.61L241.62 339.33L240.89 340.04L240.16 340.75L239.43 341.46L238.71 342.18L237.98 342.89L237.25 343.6L236.52 344.32L235.8 345.03L235.07 345.74L234.82 345.99L234.56 346.23L234.3 346.47L234.04 346.7L233.78 346.92L233.52 347.14L233.25 347.35L232.98 347.56L232.71 347.76L232.44 347.95L232.17 348.14L231.89 348.32L231.62 348.5L231.33 348.67L231.05 348.83L230.77 348.99L230.48 349.14L230.19 349.28L229.89 349.42L229.6 349.55L229.3 349.67L229 349.79L228.69 349.9L228.39 350L228.08 350.1L227.76 350.19L227.45 350.27L227.13 350.34L226.8 350.41L226.48 350.47L226.15 350.52L225.82 350.57L225.48 350.61L225.14 350.64L224.8 350.66L224.45 350.68L224.1 350.69L223.74 350.69L223.38 350.68L223.02 350.66L222.78 350.65L222.53 350.63L222.3 350.6L222.07 350.57L221.85 350.54L221.63 350.5L221.41 350.45L221.2 350.4L221 350.35L220.8 350.28L220.6 350.22L220.41 350.15L220.23 350.07L220.05 349.99L219.87 349.9L219.7 349.81L219.54 349.71L219.38 349.61L219.22 349.5L219.06 349.39L218.92 349.27L218.77 349.14L218.63 349.01L218.5 348.87L218.36 348.73L218.24 348.58L218.11 348.43L217.99 348.27L217.87 348.11L217.76 347.93L217.65 347.76L217.55 347.57L217.45 347.38L217.35 347.19L217.25 346.99L217.16 346.78L217.08 346.56L216.99 346.34L216.91 346.12L216.83 345.88L216.28 344.16L215.72 342.43L215.16 340.71L214.6 338.98L214.05 337.25L213.49 335.53L212.93 333.8L212.37 332.08L211.81 330.35L211.25 328.63L210.69 326.9L210.13 325.18L209.57 323.45L209.01 321.73L208.45 320L207.89 318.28L207.33 316.55L206.77 314.83L206.22 313.1L205.66 311.38L205.1 309.65L204.54 307.93L203.98 306.2L203.42 304.48L202.86 302.75L202.3 301.02L201.74 299.3L201.18 297.57L200.62 295.85L200.07 294.12L199.51 292.4L198.95 290.67L198.39 288.94L197.84 287.22L197.28 285.49L196.73 283.76L196.17 282.03L195.62 280.31L195.06 278.58L194.51 276.85L194.45 276.68L194.4 276.52L194.34 276.37L194.28 276.21L194.22 276.06L194.16 275.92L194.1 275.78L194.03 275.64L193.96 275.51L193.89 275.38L193.82 275.25L193.75 275.13L193.67 275.01L193.59 274.89L193.51 274.78L193.43 274.67L193.34 274.56L193.25 274.46L193.16 274.36L193.07 274.26L192.97 274.17L192.87 274.08L192.77 273.99L192.66 273.9L192.55 273.82L192.44 273.74L192.32 273.66L192.21 273.58L192.08 273.51L191.96 273.44L191.82 273.37L191.69 273.3L191.55 273.23L191.41 273.17L191.26 273.11L191.11 273.05L190.96 272.99L190.8 272.94L190.64 272.88L190.47 272.83L189.16 272.43L187.85 272.03L186.54 271.63L185.23 271.22L183.92 270.82L182.61 270.42L181.3 270.02L179.99 269.61L178.68 269.21L177.37 268.8L176.06 268.4L174.75 267.99L173.44 267.59L172.13 267.18L170.82 266.77L169.51 266.37L168.21 265.96L166.9 265.55L165.59 265.14L164.28 264.74L162.97 264.33L161.66 263.92L160.36 263.51L159.05 263.1L157.74 262.69L156.43 262.28L155.13 261.87L153.82 261.46L152.51 261.04L151.2 260.63L149.9 260.22L148.59 259.81L147.28 259.39L145.98 258.98L144.67 258.57L143.36 258.15L142.06 257.74L140.75 257.32L139.44 256.91L138.14 256.49L137.94 256.43L137.74 256.36L137.53 256.3L137.33 256.23L137.13 256.16L136.93 256.09L136.73 256.02L136.53 255.95L136.33 255.88L136.13 255.8L135.93 255.73L135.73 255.65L135.53 255.57L135.33 255.49L135.14 255.41L134.94 255.33L134.74 255.25L134.54 255.17L134.35 255.08L134.15 254.99L133.96 254.91L133.76 254.82L133.57 254.73L133.38 254.63L133.19 254.54L133 254.44L132.81 254.35L132.62 254.25L132.43 254.15L132.24 254.05L132.06 253.95L131.87 253.84L131.69 253.74L131.51 253.63L131.33 253.52L131.15 253.41L130.97 253.3L130.79 253.18L130.61 253.07L130.44 252.95L130.18 252.77L129.93 252.58L129.69 252.38L129.46 252.18L129.24 251.98L129.04 251.77L128.85 251.55L128.67 251.33L128.5 251.11L128.34 250.89L128.2 250.66L128.06 250.43L127.94 250.19L127.84 249.96L127.74 249.72L127.66 249.48L127.59 249.23L127.53 248.99L127.48 248.74L127.45 248.5L127.43 248.25L127.42 248L127.43 247.75L127.45 247.51L127.48 247.26L127.52 247.01L127.58 246.76L127.65 246.52L127.73 246.27L127.83 246.03L127.94 245.79L128.06 245.55L128.2 245.31L128.35 245.08L128.52 244.84L128.7 244.61L128.89 244.39L129.09 244.16L129.31 243.94L129.55 243.73L129.77 243.53L130 243.34L130.22 243.14L130.45 242.95L130.68 242.76L130.92 242.57L131.15 242.39L131.39 242.2L131.63 242.02L131.87 241.83L132.11 241.65L132.36 241.47L132.6 241.3L132.85 241.12L133.1 240.95L133.35 240.77L133.6 240.61L133.86 240.44L134.11 240.27L134.37 240.11L134.63 239.95L134.89 239.79L135.15 239.63L135.41 239.48L135.67 239.33L135.93 239.18L136.2 239.03L136.47 238.88L136.73 238.74L137 238.6L137.27 238.47L137.54 238.33L137.81 238.2L138.08 238.07L138.35 237.95L138.63 237.82L138.9 237.7L139.17 237.59L139.45 237.47L139.72 237.36L141.33 236.73L142.93 236.1L144.53 235.46L146.14 234.83L147.74 234.2L149.34 233.57L150.95 232.94L152.55 232.31L154.16 231.69L155.77 231.06L157.37 230.43L158.98 229.81L160.58 229.18L162.19 228.56L163.8 227.94L165.4 227.31L167.01 226.69L168.62 226.07L170.23 225.45L171.83 224.83L173.44 224.21L175.05 223.59L176.66 222.97L178.27 222.35L179.88 221.73L181.48 221.11L183.09 220.49L184.7 219.87L186.31 219.25L187.92 218.63L189.53 218.01L191.14 217.39L192.74 216.77L194.35 216.16L195.96 215.54L197.57 214.92L199.18 214.3L200.79 213.68L202.4 213.06L204 212.44L208.08 210.86L212.17 209.29L216.25 207.71L220.33 206.14L224.41 204.56L228.49 202.99L232.57 201.41L236.65 199.84L240.73 198.26L244.81 196.69L248.9 195.11L252.98 193.54L257.06 191.96L261.14 190.39L265.22 188.81L269.3 187.24L273.38 185.66L277.46 184.09L281.54 182.51L285.63 180.94L289.71 179.36L293.79 177.79L297.87 176.21L301.95 174.63L306.03 173.06L310.11 171.48L314.19 169.91L318.28 168.33L322.36 166.76L326.44 165.18L330.52 163.61L334.6 162.03L338.68 160.46L342.76 158.88L346.84 157.31L350.93 155.73L355.01 154.16L359.09 152.58L363.17 151.01L367.25 149.43L368.02 149.15L368.79 148.9L369.54 148.69L370.28 148.52L371.01 148.37L371.72 148.27L372.43 148.19L373.12 148.15L373.8 148.15L374.46 148.17L375.11 148.23ZM335.07 187.34L334.95 187.35L334.82 187.36L334.7 187.37L334.58 187.39L334.46 187.41L334.34 187.44L334.22 187.47L334.06 187.51L333.89 187.55L333.73 187.6L333.57 187.65L333.41 187.71L333.25 187.76L333.1 187.82L332.94 187.88L332.78 187.94L332.62 188L332.46 188.07L332.31 188.14L332.15 188.2L331.99 188.27L331.84 188.35L331.68 188.42L331.53 188.5L331.38 188.57L331.22 188.65L331.07 188.73L330.92 188.81L330.76 188.89L330.61 188.98L330.46 189.06L330.31 189.15L330.16 189.23L330.01 189.32L329.86 189.41L329.71 189.49L329.56 189.58L329.41 189.67L329.26 189.76L329.12 189.85L328.97 189.94L328.82 190.03L328.68 190.12L328.53 190.21L328.38 190.3L328.24 190.4L328.1 190.49L325.02 192.42L321.95 194.36L318.88 196.29L315.81 198.22L312.74 200.16L309.67 202.09L306.6 204.03L303.53 205.96L300.46 207.9L297.39 209.83L294.32 211.77L291.25 213.7L288.18 215.64L285.11 217.57L282.04 219.51L278.97 221.44L275.9 223.38L272.83 225.31L269.76 227.25L266.69 229.18L263.62 231.12L260.55 233.05L257.48 234.99L254.41 236.92L251.34 238.86L248.27 240.79L245.2 242.73L242.13 244.66L239.06 246.59L235.99 248.53L232.92 250.46L229.85 252.39L226.78 254.32L223.71 256.26L220.63 258.19L217.56 260.12L214.49 262.05L211.42 263.98L208.34 265.91L205.27 267.84L205.1 267.95L204.94 268.06L204.78 268.17L204.63 268.28L204.49 268.38L204.36 268.49L204.23 268.6L204.1 268.7L203.99 268.81L203.88 268.92L203.78 269.03L203.68 269.14L203.59 269.25L203.51 269.36L203.43 269.47L203.36 269.58L203.3 269.7L203.24 269.82L203.19 269.93L203.14 270.05L203.1 270.18L203.07 270.3L203.04 270.43L203.02 270.56L203 270.69L202.99 270.82L202.98 270.96L202.98 271.1L202.99 271.25L203 271.39L203.02 271.54L203.04 271.7L203.07 271.86L203.1 272.02L203.14 272.18L203.18 272.35L203.23 272.53L203.28 272.71L203.34 272.89L203.41 273.08L203.63 273.73L203.86 274.38L204.08 275.03L204.3 275.68L204.53 276.33L204.75 276.99L204.97 277.64L205.19 278.29L205.41 278.95L205.63 279.6L205.84 280.25L206.06 280.9L206.28 281.56L206.49 282.21L206.71 282.87L206.92 283.52L207.14 284.18L207.35 284.83L207.57 285.48L207.78 286.14L207.99 286.79L208.21 287.45L208.42 288.1L208.63 288.76L208.84 289.41L209.05 290.07L209.27 290.73L209.48 291.38L209.69 292.04L209.9 292.69L210.11 293.35L210.32 294L210.54 294.66L210.75 295.31L210.96 295.97L211.17 296.63L211.39 297.28L211.6 297.94L211.81 298.59L212.02 299.25L212.31 300.12L212.59 300.99L212.88 301.86L213.16 302.74L213.45 303.61L213.73 304.48L214.02 305.35L214.3 306.22L214.59 307.1L214.87 307.97L215.16 308.84L215.44 309.71L215.72 310.58L216.01 311.45L216.29 312.33L216.58 313.2L216.86 314.07L217.15 314.94L217.43 315.81L217.72 316.69L218 317.56L218.29 318.43L218.57 319.3L218.85 320.17L219.14 321.04L219.42 321.92L219.71 322.79L219.99 323.66L220.28 324.53L220.56 325.4L220.85 326.27L221.13 327.15L221.42 328.02L221.7 328.89L222.27 330.63L222.55 331.5L223.41 334.12L223.47 334.1L223.52 334.09L223.58 334.07L223.64 334.06L223.68 334.04L223.7 334.04L223.75 334.03L223.79 334.01L223.82 334.01L223.85 334L223.88 333.99L223.92 333.98L223.95 333.97L223.98 333.97L224.01 333.96L224.02 333.95L224.03 333.92L224.04 333.88L224.05 333.84L224.06 333.8L224.07 333.76L224.08 333.72L224.09 333.68L224.1 333.64L224.11 333.6L224.12 333.56L224.12 333.53L224.15 333.41L224.16 333.37L224.17 333.33L224.18 333.29L224.19 333.25L224.2 333.21L224.21 333.18L224.22 333.14L224.23 333.1L224.24 333.06L224.25 333.02L224.25 332.98L224.26 332.94L224.27 332.91L224.28 332.87L224.29 332.83L224.29 332.79L224.3 332.75L224.31 332.71L224.31 332.67L224.32 332.63L224.32 332.6L224.33 332.56L224.33 332.52L224.34 332.48L224.34 332.44L224.35 332.4L224.44 331.45L224.52 330.5L224.61 329.56L224.7 328.61L224.79 327.66L224.88 326.71L224.97 325.76L225.06 324.81L225.15 323.87L225.23 322.92L225.32 321.97L225.41 321.02L225.5 320.07L225.59 319.12L225.68 318.18L225.77 317.23L225.86 316.28L225.94 315.33L226.03 314.38L226.12 313.43L226.21 312.48L226.29 311.53L226.38 310.59L226.47 309.64L226.55 308.69L226.64 307.74L226.72 306.79L226.81 305.84L226.89 304.89L226.98 303.94L227.06 302.99L227.14 302.04L227.22 301.09L227.31 300.14L227.39 299.2L227.47 298.25L227.54 297.3L227.62 296.35L227.7 295.4L227.78 294.45L227.8 294.24L227.82 294.03L227.84 293.82L227.87 293.62L227.9 293.42L227.93 293.23L227.97 293.04L228.01 292.85L228.05 292.66L228.09 292.47L228.14 292.29L228.19 292.11L228.25 291.93L228.31 291.75L228.37 291.58L228.43 291.41L228.5 291.24L228.57 291.07L228.65 290.9L228.73 290.74L228.81 290.58L228.89 290.41L228.98 290.25L229.08 290.1L229.17 289.94L229.27 289.78L229.38 289.63L229.48 289.48L229.6 289.33L229.71 289.18L229.83 289.03L229.96 288.88L230.08 288.73L230.22 288.59L230.35 288.44L230.49 288.3L230.64 288.15L230.78 288.01L230.94 287.86L231.09 287.72L232.36 286.59L233.62 285.46L234.88 284.33L236.14 283.2L237.4 282.07L238.66 280.94L239.92 279.81L241.18 278.68L242.44 277.55L243.7 276.42L244.96 275.29L246.22 274.16L247.47 273.02L248.73 271.89L249.99 270.76L251.25 269.63L252.5 268.49L253.76 267.36L255.02 266.23L256.28 265.09L257.53 263.96L258.79 262.83L260.05 261.69L261.3 260.56L262.56 259.43L263.82 258.29L265.07 257.16L266.33 256.03L267.58 254.89L268.84 253.76L270.1 252.62L271.35 251.49L272.61 250.36L273.87 249.22L275.12 248.09L276.38 246.95L277.64 245.82L278.89 244.69L280.15 243.55L281.41 242.42L282.8 241.17L284.19 239.91L285.58 238.66L286.97 237.4L288.36 236.15L289.75 234.89L291.15 233.64L292.54 232.38L293.93 231.13L295.32 229.87L296.71 228.62L298.1 227.36L299.49 226.11L300.88 224.85L302.28 223.6L303.67 222.35L305.06 221.09L306.45 219.83L307.84 218.58L309.23 217.32L310.62 216.07L312.01 214.81L313.4 213.56L314.79 212.3L316.18 211.04L317.57 209.79L318.96 208.53L320.35 207.28L321.73 206.02L323.12 204.76L324.51 203.5L325.9 202.25L327.29 200.99L328.68 199.73L330.06 198.47L331.45 197.21L332.84 195.95L334.23 194.7L335.61 193.44L337 192.18L337.08 192.1L337.17 192.02L337.24 191.93L337.32 191.84L337.4 191.76L337.47 191.66L337.54 191.57L337.61 191.48L337.68 191.38L337.75 191.28L337.81 191.18L337.87 191.08L337.94 190.97L338 190.87L338.06 190.76L338.11 190.65L338.17 190.54L338.23 190.43L338.28 190.32L338.34 190.21L338.39 190.1L338.44 189.98L338.5 189.87L338.55 189.75L338.6 189.64L338.65 189.52L338.7 189.41L338.75 189.29L338.81 189.18L338.86 189.06L338.91 188.95L338.96 188.84L339.02 188.72L339.07 188.61L339.12 188.49L339.18 188.38L339.23 188.27L339.29 188.16L339.35 188.05L339.4 187.94L339.27 187.93L339.14 187.91L339.01 187.89L338.88 187.87L338.75 187.85L338.61 187.83L338.48 187.81L338.35 187.78L338.22 187.76L338.08 187.73L337.95 187.71L337.82 187.68L337.68 187.65L337.55 187.63L337.42 187.6L337.28 187.58L337.15 187.55L337.02 187.53L336.88 187.5L336.75 187.48L336.62 187.46L336.49 187.44L336.36 187.42L336.22 187.4L336.09 187.39L335.96 187.37L335.83 187.36L335.71 187.35L335.58 187.35L335.45 187.34L335.32 187.34L335.2 187.34L335.07 187.34Z" id="gLmAgLgSW"></path></defs><g><g><g><use xlink:href="#gLmAgLgSW" opacity="1" fill="#ffffff" fill-opacity="1"></use><g><use xlink:href="#gLmAgLgSW" opacity="1" fill-opacity="0" stroke="#000000" stroke-width="1" stroke-opacity="0"></use></g></g></g></g></svg>