<?xml version="1.0" encoding="UTF-8" standalone="no"?>
<!DOCTYPE svg PUBLIC "-//W3C//DTD SVG 1.1//EN" "http://www.w3.org/Graphics/SVG/1.1/DTD/svg11.dtd">
<svg version="1.1" xmlns="http://www.w3.org/2000/svg" xmlns:xlink="http://www.w3.org/1999/xlink" preserveAspectRatio="xMidYMid meet" viewBox="0 0 512 512" width="512" height="512"><defs><path d="M218.3 186C223.6 183.4 229.3 182.6 235 182.7C243.2 182.9 251.4 183.4 259.5 183.7C263.2 183.9 266.8 184 270.3 185.4C275.5 187.5 278.2 191.4 278.4 196.9C278.5 201.3 277.9 205.8 277.7 210.3C277.4 219.8 277 229.3 277 238.8C277 241.8 278.3 244.8 279.1 247.8C279.3 248.6 279.9 249.4 280.4 250.1C282.4 252.9 283 252.9 285.8 251.1C291 247.8 294.9 243.3 298.4 238.3C303.2 231.5 307.4 224.5 311 217.1C314.5 209.7 318.1 202.2 321.4 194.7C323 190.9 325.6 189.3 329.7 189.4C345 189.5 360.4 189.5 375.7 189.4C380.6 189.4 384.1 193.6 383 198.4C381.8 203.5 379.5 208.1 376.8 212.4C369.2 224.8 360.7 236.5 351.1 247.4C347.7 251.2 344.7 255.3 343.1 260.3C341.4 265.7 342.5 270.5 346.5 274.5C353.6 281.6 361 288.5 367.9 295.8C372 300.1 375.6 304.9 379.2 309.7C381.5 312.7 383 316.3 382.6 320.3C382.1 324.8 379.9 327.1 375.4 327.3C366.8 327.8 358.1 328.1 349.4 328.5C344.4 328.7 339.3 329 334.3 329.2C330.3 329.4 326.7 327.9 323.3 325.9C317.9 322.8 313.3 318.6 308.9 314.2C304.3 309.7 300 305 296.5 299.5C294.3 296 288.2 294.1 284.4 295.6C281.4 296.7 280 299.1 279.7 302.1C279.2 307.1 278.9 312 278.5 317C277.9 323.1 274.1 326.9 268 327.7C256 329.3 244.1 328.7 232.3 326.4C223.6 324.7 216.1 320.5 209 315.4C199.2 308.5 190.9 300 183.1 291.1C179.1 286.4 175.5 281.3 172.1 276.2C161 259.9 150.5 243.3 141.4 225.8C137 217.4 132.6 209.1 130.3 199.8C129.8 197.7 129.5 195.6 129.1 193.5C128.9 192.5 129.3 191.7 130.2 191.4C132.7 190.6 135.2 189.5 137.7 189.4C145.8 189.1 154 189.1 162.1 189C165.6 189 169.1 189.3 172.6 189.2C177.3 189 180.5 191.1 182.5 195.1C184.5 199.1 186.3 203.2 188.2 207.2C195.1 221.6 202.6 235.7 212.4 248.4C213.8 250.3 216 251.8 218.1 253C220.6 254.4 222.8 253.7 224.3 251.2C226.1 248.3 226.9 245 227 241.6C227.1 232 227.4 222.4 227.3 212.8C227.2 202.9 222.3 196.3 212.9 192.7C212.7 192.7 212.4 192.6 212.1 192.4C213.3 189.3 215.5 187.4 218.3 186Z" id="i29j0QXjx"></path></defs><g><g><g><use xlink:href="#i29j0QXjx" opacity="1" fill="#ffffff" fill-opacity="1"></use><g><use xlink:href="#i29j0QXjx" opacity="1" fill-opacity="0" stroke="#000000" stroke-width="1" stroke-opacity="0"></use></g></g></g></g></svg>